<?xml version="1.0" encoding="UTF-8" standalone="no"?>
<!-- Generator: Adobe Illustrator 17.1.0, SVG Export Plug-In . SVG Version: 6.00 Build 0)  -->

<svg
   xmlns:dc="http://purl.org/dc/elements/1.1/"
   xmlns:cc="http://creativecommons.org/ns#"
   xmlns:rdf="http://www.w3.org/1999/02/22-rdf-syntax-ns#"
   xmlns:svg="http://www.w3.org/2000/svg"
   xmlns="http://www.w3.org/2000/svg"
   xmlns:sodipodi="http://sodipodi.sourceforge.net/DTD/sodipodi-0.dtd"
   xmlns:inkscape="http://www.inkscape.org/namespaces/inkscape"
   version="1.1"
   id="Layer_1"
   x="0px"
   y="0px"
   viewBox="0 0 153.09055 114.80876"
   enable-background="new 0 0 547.8 410.6"
   xml:space="preserve"
   inkscape:version="0.48.4 r9939"
   width="100%"
   height="100%"
   sodipodi:docname="Sass_Logo_Color.svg"><metadata
     id="metadata3986"><rdf:RDF><cc:Work
         rdf:about=""><dc:format>image/svg+xml</dc:format><dc:type
           rdf:resource="http://purl.org/dc/dcmitype/StillImage" /><dc:title></dc:title></cc:Work></rdf:RDF></metadata><defs
     id="defs3984" /><sodipodi:namedview
     pagecolor="#ffffff"
     bordercolor="#666666"
     borderopacity="1"
     objecttolerance="10"
     gridtolerance="10"
     guidetolerance="10"
     inkscape:pageopacity="0"
     inkscape:pageshadow="2"
     inkscape:window-width="1680"
     inkscape:window-height="900"
     id="namedview3982"
     showgrid="false"
     fit-margin-top="0"
     fit-margin-left="0"
     fit-margin-right="0"
     fit-margin-bottom="0"
     inkscape:zoom="1.6256912"
     inkscape:cx="111.96603"
     inkscape:cy="52.452152"
     inkscape:window-x="0"
     inkscape:window-y="27"
     inkscape:window-maximized="1"
     inkscape:current-layer="Layer_1" /><path
     d="m 131.82295,65.999065 c -5.34085,0.02796 -9.98264,1.314241 -13.86944,3.215697 -1.42609,-2.824221 -2.85218,-5.340854 -3.10385,-7.186384 -0.27962,-2.153119 -0.61517,-3.46736 -0.27962,-6.039918 0.33555,-2.572558 1.84553,-6.235656 1.81757,-6.515282 -0.028,-0.279626 -0.33556,-1.593867 -3.41144,-1.62183 -3.07588,-0.02796 -5.73233,0.587214 -6.03992,1.398129 -0.30759,0.810915 -0.8948,2.656446 -1.28628,4.557901 -0.53129,2.796259 -6.151766,12.778901 -9.367463,18.007904 -1.034616,-2.041268 -1.929418,-3.830874 -2.125156,-5.256966 -0.279626,-2.153118 -0.615177,-3.46736 -0.279626,-6.039918 0.335551,-2.572557 1.84553,-6.235656 1.817568,-6.515282 -0.02796,-0.279625 -0.335551,-1.593867 -3.411436,-1.621829 -3.075884,-0.02796 -5.732329,0.587214 -6.039918,1.398129 -0.307588,0.810915 -0.643139,2.71237 -1.286279,4.557901 -0.643139,1.84553 -8.109149,18.51123 -10.06653,22.817468 -1.006653,2.209044 -1.873493,3.970687 -2.48867,5.173078 0,0 0,0 0,0 0,0 -0.02796,0.08389 -0.11185,0.223701 -0.531289,1.034615 -0.838877,1.593867 -0.838877,1.593867 0,0 0,0 0,0.02796 -0.419439,0.754989 -0.866841,1.454054 -1.090541,1.454054 -0.167776,0 -0.475364,-2.013306 0.05593,-4.753639 1.118503,-5.788255 3.774949,-14.792207 3.746986,-15.099795 0,-0.167776 0.503327,-1.733681 -1.73368,-2.544596 -2.181082,-0.810914 -2.964034,0.53129 -3.159772,0.53129 -0.195738,0 -0.335551,0.475363 -0.335551,0.475363 0,0 2.432745,-10.122455 -4.641789,-10.122455 -4.418088,0 -10.513931,4.837527 -13.53389,9.19969 -1.901456,1.034616 -5.956031,3.24366 -10.290231,5.62048 -1.649793,0.922765 -3.35551,1.84553 -4.949377,2.71237 C 35.407967,75.534303 35.296117,75.39449 35.184267,75.28264 26.627711,66.138878 10.800889,59.679521 11.471991,47.403947 11.723654,42.929933 13.261596,31.185648 41.867319,16.92473 65.411815,5.3202587 84.146746,8.5359559 87.390405,15.666414 92.032194,25.844795 77.351838,44.747501 53.02439,47.487834 43.740812,48.52245 38.875323,44.943239 37.644969,43.601035 36.35869,42.202906 36.162952,42.119018 35.687588,42.398644 c -0.782952,0.419439 -0.279626,1.677755 0,2.404782 0.727027,1.901456 3.719024,5.256966 8.780251,6.906759 4.474014,1.454054 15.351459,2.264969 28.521836,-2.824221 C 87.725956,43.181597 99.246541,27.326812 95.863068,14.044584 92.479595,0.56661951 70.109529,-3.8794313 48.941853,3.6425037 36.35869,8.1165171 22.712949,15.163088 12.898082,24.334815 1.2376853,35.240223 -0.60784525,44.719539 0.14714451,48.690226 2.8595151,62.783368 22.29351,71.955095 30.067109,78.750003 c -0.391476,0.223701 -0.75499,0.419439 -1.062578,0.587214 -3.8868,1.929418 -18.706969,9.675054 -22.3980296,17.868091 -4.1943876,9.283582 0.671102,15.938672 3.8867986,16.833482 9.982643,2.76829 20.244911,-2.20905 25.75354,-10.43005 5.508629,-8.221 4.837527,-18.902707 2.292932,-23.796159 -0.02796,-0.05593 -0.05593,-0.11185 -0.111851,-0.167775 1.006653,-0.587215 2.041269,-1.202391 3.047922,-1.789606 1.985343,-1.174428 3.942724,-2.264969 5.620479,-3.159772 -0.950728,2.600521 -1.649792,5.704367 -1.985343,10.178381 -0.419439,5.256966 1.73368,12.079836 4.557901,14.764244 1.258316,1.174427 2.740333,1.202397 3.691061,1.202397 3.299585,0 4.781602,-2.740339 6.431394,-5.983999 2.013306,-3.970687 3.830874,-8.584513 3.830874,-8.584513 0,0 -2.264969,12.471312 3.886799,12.471312 2.237007,0 4.501976,-2.908108 5.508629,-4.390125 0,0.02796 0,0.02796 0,0.02796 0,0 0.05593,-0.08389 0.167776,-0.279626 0.2237,-0.363513 0.363513,-0.587214 0.363513,-0.587214 0,0 0,-0.02796 0,-0.05593 0.894803,-1.565905 2.908109,-5.117153 5.900106,-11.017258 3.858836,-7.605823 7.57786,-17.113101 7.57786,-17.113101 0,0 0.335551,2.320894 1.482017,6.179731 0.671102,2.264969 2.069231,4.753639 3.187734,7.158421 -0.894803,1.258316 -1.454054,1.957381 -1.454054,1.957381 0,0 0,0 0.02796,0.02796 -0.727027,0.950727 -1.509979,1.985343 -2.376819,2.991996 -3.047922,3.635136 -6.683058,7.801561 -7.186384,9.003952 -0.587214,1.426092 -0.447402,2.460707 0.671102,3.299585 0.810915,0.615177 2.264969,0.699064 3.746986,0.615177 2.740333,-0.195738 4.669751,-0.86684 5.620479,-1.286279 1.482017,-0.531289 3.215697,-1.342204 4.837527,-2.544595 2.991997,-2.209044 4.80957,-5.368816 4.64179,-9.535241 -0.0839,-2.292932 -0.838878,-4.585864 -1.761644,-6.738983 0.279626,-0.391476 0.531289,-0.782952 0.810915,-1.174428 4.725679,-6.906759 8.388779,-14.484619 8.388779,-14.484619 0,0 0.33555,2.320895 1.48202,6.179731 0.55925,1.957381 1.70571,4.082537 2.71237,6.151769 -4.44605,3.607173 -7.18639,7.80156 -8.16508,10.541894 -1.76164,5.08919 -0.39147,7.382122 2.20905,7.913411 1.17443,0.251663 2.85218,-0.307589 4.08253,-0.838878 1.56591,-0.503326 3.41144,-1.370166 5.17308,-2.656445 2.992,-2.209044 5.87214,-5.284928 5.70437,-9.451353 -0.0839,-1.901456 -0.58722,-3.774949 -1.28628,-5.592517 3.77495,-1.565905 8.64044,-2.432745 14.84813,-1.705718 13.31019,1.565905 15.93867,9.870792 15.43535,13.366115 -0.50333,3.495323 -3.29959,5.396779 -4.22235,5.983993 -0.92277,0.587214 -1.23036,0.782953 -1.14647,1.202391 0.11185,0.615177 0.55925,0.587215 1.34221,0.475364 1.09054,-0.195738 6.99064,-2.824221 7.24231,-9.255615 0.41943,-8.221 -7.41009,-17.196989 -21.25157,-17.113101 z M 29.144343,100.61675 c -4.418088,4.80956 -10.569856,6.62713 -13.226302,5.08919 -2.852183,-1.6498 -1.73368,-8.752295 3.691061,-13.841485 3.299585,-3.103847 7.549898,-5.983993 10.374119,-7.745636 0.643139,-0.391476 1.593867,-0.950728 2.740333,-1.649792 0.195738,-0.111851 0.307589,-0.167776 0.307589,-0.167776 l 0,0 c 0.2237,-0.139813 0.447401,-0.279626 0.671102,-0.419439 1.985343,7.270272 0.08389,13.673704 -4.557902,18.734938 z M 61.301315,78.750003 c -1.537942,3.746986 -4.75364,13.338152 -6.71102,12.806863 -1.677755,-0.447401 -2.712371,-7.717673 -0.335551,-14.904057 1.202391,-3.607173 3.746986,-7.913411 5.229003,-9.591166 2.404782,-2.684408 5.061227,-3.579211 5.704367,-2.48867 0.810915,1.426092 -2.936071,11.828173 -3.886799,14.17703 z m 26.536492,12.695013 c -0.64314,0.335551 -1.258317,0.559252 -1.537942,0.391476 -0.195739,-0.11185 0.279625,-0.559252 0.279625,-0.559252 0,0 3.327548,-3.57921 4.641789,-5.20104 0.75499,-0.950728 1.649793,-2.069231 2.600521,-3.327548 0,0.111851 0,0.251664 0,0.363514 0,4.278275 -4.138463,7.158421 -5.983993,8.33285 z m 20.468613,-4.669752 c -0.47537,-0.335551 -0.39148,-1.454054 1.20239,-4.949377 0.61518,-1.370166 2.06923,-3.663098 4.5579,-5.872142 0.27963,0.894802 0.47537,1.761642 0.4474,2.572557 -0.028,5.396779 -3.8868,7.410085 -6.20769,8.248962 z"
     id="path3968"
     style="fill:#ffffff;fill-opacity:1"
     inkscape:connector-curvature="0" /><g
     id="g3970"
     transform="matrix(0.27962584,0,0,0.27962584,0.00733159,0.00736783)" /><g
     id="g3972"
     transform="matrix(0.27962584,0,0,0.27962584,0.00733159,0.00736783)" /><g
     id="g3974"
     transform="matrix(0.27962584,0,0,0.27962584,0.00733159,0.00736783)" /><g
     id="g3976"
     transform="matrix(0.27962584,0,0,0.27962584,0.00733159,0.00736783)" /><g
     id="g3978"
     transform="matrix(0.27962584,0,0,0.27962584,0.00733159,0.00736783)" /><g
     id="g3980"
     transform="matrix(0.27962584,0,0,0.27962584,0.00733159,0.00736783)" /></svg>