<?xml version="1.0" encoding="UTF-8" standalone="no"?>
<!-- Created with Inkscape (http://www.inkscape.org/) -->

<svg
   xmlns:dc="http://purl.org/dc/elements/1.1/"
   xmlns:cc="http://creativecommons.org/ns#"
   xmlns:rdf="http://www.w3.org/1999/02/22-rdf-syntax-ns#"
   xmlns:svg="http://www.w3.org/2000/svg"
   xmlns="http://www.w3.org/2000/svg"
   xmlns:sodipodi="http://sodipodi.sourceforge.net/DTD/sodipodi-0.dtd"
   xmlns:inkscape="http://www.inkscape.org/namespaces/inkscape"
   width="32.0019"
   height="32"
   id="svg4373"
   version="1.1"
   inkscape:version="0.48.4 r9939"
   sodipodi:docname="New document 5">
  <defs
     id="defs4375" />
  <sodipodi:namedview
     id="base"
     pagecolor="#ffffff"
     bordercolor="#666666"
     borderopacity="1.0"
     inkscape:pageopacity="0.0"
     inkscape:pageshadow="2"
     inkscape:zoom="1.4"
     inkscape:cx="437.87674"
     inkscape:cy="-68.879428"
     inkscape:document-units="px"
     inkscape:current-layer="layer1"
     showgrid="false"
     fit-margin-top="0"
     fit-margin-left="0"
     fit-margin-right="0"
     fit-margin-bottom="0"
     inkscape:window-width="1920"
     inkscape:window-height="957"
     inkscape:window-x="0"
     inkscape:window-y="0"
     inkscape:window-maximized="1" />
  <metadata
     id="metadata4378">
    <rdf:RDF>
      <cc:Work
         rdf:about="">
        <dc:format>image/svg+xml</dc:format>
        <dc:type
           rdf:resource="http://purl.org/dc/dcmitype/StillImage" />
        <dc:title></dc:title>
      </cc:Work>
    </rdf:RDF>
  </metadata>
  <g
     inkscape:label="Layer 1"
     inkscape:groupmode="layer"
     id="layer1"
     transform="translate(-358.99905,-516.36218)">
    <path
       inkscape:connector-curvature="0"
       id="certificate-1-5-9-1"
       d="m 390.83165,529.44164 c 0.1158,-0.33468 0.1693,-0.67837 0.1693,-1.01763 0,-1.02672 -0.5065,-2.01826 -1.4062,-2.64195 -2.8712,-1.98889 -2.4909,-1.48893 -3.5717,-4.72458 -0.4531,-1.35021 -1.759,-2.26307 -3.2317,-2.26307 0,0 -0.01,0 -0.01,0 -3.5378,0.0124 -2.9244,0.20186 -5.7787,-1.80466 -0.5964,-0.41864 -1.2995,-0.62757 -2.0027,-0.62757 -0.7031,0 -1.4062,0.20893 -2.0025,0.62757 -2.8751,2.0209 -2.2475,1.81709 -5.7787,1.80466 0,0 -0.01,0 -0.01,0 -1.4727,0 -2.7786,0.91278 -3.2291,2.26307 -1.0834,3.24218 -0.7123,2.74027 -3.5717,4.72458 -0.9024,0.62501 -1.4089,1.61593 -1.4089,2.64389 0,0.33856 0.056,0.68101 0.1692,1.01569 1.1082,3.23759 1.1055,2.61584 0,5.83976 -0.1132,0.336 -0.1692,0.67721 -0.1692,1.01561 0,1.0275 0.5065,2.01958 1.4089,2.64459 2.8606,1.98703 2.4908,1.48443 3.5716,4.72528 0.4505,1.34897 1.7564,2.26299 3.2291,2.26299 0,0 0.01,0 0.01,0 3.5378,-0.0131 2.9246,-0.20311 5.7787,1.80342 0.5964,0.41794 1.2995,0.62889 2.0026,0.62889 0.7032,0 1.4063,-0.21095 2.0025,-0.62897 2.8543,-2.00652 2.2384,-1.81647 5.7788,-1.80342 0,0 0.01,0 0.01,0 1.4726,0 2.7785,-0.91402 3.2316,-2.26299 1.0808,-3.23697 0.7006,-2.73693 3.5717,-4.72528 0.8999,-0.62361 1.4064,-1.61585 1.4064,-2.64187 0,-0.33988 -0.053,-0.68225 -0.1694,-1.01825 -1.108,-3.23697 -1.1028,-2.61646 0,-5.83976 z m -17.8307,9.25382 -6.0001,-5.81895 2.4779,-2.47658 3.5222,3.3398 7.5221,-7.71029 2.4779,2.47666 -10,10.18936 z"
       style="fill:#131313;fill-opacity:1;display:inline" />
  </g>
</svg>
